<?xml version="1.0" encoding="UTF-8"?>
<svg id="Ebene_1" data-name="Ebene 1" xmlns="http://www.w3.org/2000/svg" viewBox="0 0 612 792">
  <defs>
    <style>
      .cls-1 {
        fill: #1d1d1b;
        stroke-width: 0px;
      }
    </style>
  </defs>
  <path class="cls-1" d="M388.92,149.86c-12.1-9.87-22.59-22.16-31.19-36.54-6.89-11.51-12.59-24.38-16.93-38.25-7.4-23.61-14.07-42.17-14.07-42.36v-.09h-.11v-.03h-45.15l-8.04.12c0,.18-6.13,18.74-13.53,42.35-4.35,13.86-10.04,26.73-16.93,38.24-8.61,14.38-19.11,26.68-31.21,36.55h0l-.25.19.45.04c3.61.95,12.31,4.93,20.3,13.5,5.94,6.37,10.68,14.26,14.07,23.46,4.25,11.51,6.4,25.11,6.4,40.41v.09h95.26v-.09c0-15.3,2.15-28.9,6.4-40.4,3.39-9.2,8.13-17.1,14.07-23.46,7.99-8.57,16.7-12.55,20.32-13.51"/>
  <rect class="cls-1" x="195.28" y="233.86" width="214.03" height="519.78" rx="64.63" ry="64.63"/>
  <ellipse class="cls-1" cx="300.62" cy="767.87" rx="26.48" ry="10.34"/>
</svg>