<?xml version="1.0" encoding="UTF-8"?>
<svg id="Ebene_1" data-name="Ebene 1" xmlns="http://www.w3.org/2000/svg" viewBox="0 0 1945.24 1391.04">
  <defs>
    <style>
      .cls-1 {
        fill: #1d1d1b;
      }

      .cls-1, .cls-2, .cls-3, .cls-4 {
        stroke-width: 0px;
      }

      .cls-5, .cls-3 {
        fill: #fff;
      }

      .cls-2 {
        fill: #db0000;
      }

      .cls-4 {
        fill: #00df6c;
      }
    </style>
  </defs>
  <rect class="cls-5" y=".06" width="1944.57" height="1388.98" transform="translate(1944.57 1389.09) rotate(180)"/>
  <path class="cls-3" d="M1691.34,358.31c-144.31-3.72-288.56-9.46-432.87-12.97-146.08-3.55-292.11-4.28-438.23-5.07-145.47-.79-290.92-3.59-436.38-5.49-71.82-.94-143.14-4.09-214.75-9.78-56.2-4.46-112.41-9.16-168.75-11.11v311.72c5.13.05,10.26.08,15.39.15,136.34,1.79,272.29,10.81,408.16,21.76,65.66,5.29,131.29,11.68,196.36,22.12,64.99,10.43,127.97,27.12,191.45,44.21,62.41,16.81,125.63,31.53,190.47,34.01,67.84,2.6,136.14.4,204.03.4,136.9,0,272.59-18.92,409.3-22.82,60.94-1.74,121.91-5.78,182.88-6.27,49.12-.39,98.81,2.28,146.54,14.18v-368.42c-84.54-1.93-169.06-4.44-253.59-6.63Z"/>
  <path class="cls-3" d="M1691.34,358.31c-144.31-3.72-288.56-9.46-432.87-12.97-146.08-3.55-292.11-4.28-438.23-5.07-145.47-.79-290.92-3.59-436.38-5.49-71.82-.94-143.14-4.09-214.75-9.78-56.26-4.47-112.53-9.17-168.93-11.12v311.72c5.19.05,10.38.08,15.57.15,136.34,1.79,272.29,10.81,408.16,21.76,65.66,5.29,131.29,11.68,196.36,22.12,64.99,10.43,127.97,27.12,191.45,44.21,62.41,16.81,125.63,31.53,190.47,34.01,67.84,2.6,136.14.4,204.03.4,136.9,0,272.59-18.92,409.3-22.82,60.94-1.74,121.91-5.78,182.88-6.27,49.06-.39,98.69,2.28,146.36,14.13v-368.38c-84.48-1.93-168.94-4.44-253.41-6.62Z"/>
  <path class="cls-3" d="M1691.34,358.31c-144.31-3.72-288.56-9.46-432.87-12.97-146.08-3.55-292.11-4.28-438.23-5.07-145.47-.79-290.92-3.59-436.38-5.49-71.82-.94-143.14-4.09-214.75-9.78-56.26-4.47-112.53-9.17-168.93-11.12v311.72c5.19.05,10.38.08,15.57.15,136.34,1.79,272.29,10.81,408.16,21.76,65.66,5.29,131.29,11.68,196.36,22.12,64.99,10.43,127.97,27.12,191.45,44.21,62.41,16.81,125.63,31.53,190.47,34.01,67.84,2.6,136.14.4,204.03.4,136.9,0,272.59-18.92,409.3-22.82,60.94-1.74,121.91-5.78,182.88-6.27,49.06-.39,98.69,2.28,146.36,14.13v-368.38c-84.48-1.93-168.94-4.44-253.41-6.62Z"/>
  <path class="cls-3" d="M1691.34,358.31c-144.31-3.72-288.56-9.46-432.87-12.97-146.08-3.55-292.11-4.28-438.23-5.07-145.47-.79-290.92-3.59-436.38-5.49-71.82-.94-143.14-4.09-214.75-9.78-56.26-4.47-112.53-9.17-168.93-11.12v311.72c5.19.05,10.38.08,15.57.15,136.34,1.79,272.29,10.81,408.16,21.76,65.66,5.29,131.29,11.68,196.36,22.12,64.99,10.43,127.97,27.12,191.45,44.21,62.41,16.81,125.63,31.53,190.47,34.01,67.84,2.6,136.14.4,204.03.4,136.9,0,272.59-18.92,409.3-22.82,60.94-1.74,121.91-5.78,182.88-6.27,49.06-.39,98.69,2.28,146.36,14.13v-368.38c-84.48-1.93-168.94-4.44-253.41-6.62Z"/>
  <path class="cls-3" d="M1691.34,358.31c-144.31-3.72-288.56-9.46-432.87-12.97-146.08-3.55-292.11-4.28-438.23-5.07-145.47-.79-290.92-3.59-436.38-5.49-71.82-.94-143.14-4.09-214.75-9.78-56.26-4.47-112.53-9.17-168.93-11.12v311.72c5.19.05,10.38.08,15.57.15,136.34,1.79,272.29,10.81,408.16,21.76,65.66,5.29,131.29,11.68,196.36,22.12,64.99,10.43,127.97,27.12,191.45,44.21,62.41,16.81,125.63,31.53,190.47,34.01,67.84,2.6,136.14.4,204.03.4,136.9,0,272.59-18.92,409.3-22.82,60.94-1.74,121.91-5.78,182.88-6.27,49.06-.39,98.69,2.28,146.36,14.13v-368.38c-84.48-1.93-168.94-4.44-253.41-6.62Z"/>
  <path class="cls-3" d="M1691.34,358.31c-144.31-3.72-288.56-9.46-432.87-12.97-146.08-3.55-292.11-4.28-438.23-5.07-145.47-.79-290.92-3.59-436.38-5.49-71.82-.94-143.14-4.09-214.75-9.78-56.26-4.47-112.53-9.17-168.93-11.12v311.72c5.19.05,10.38.08,15.57.15,136.34,1.79,272.29,10.81,408.16,21.76,65.66,5.29,131.29,11.68,196.36,22.12,64.99,10.43,127.97,27.12,191.45,44.21,62.41,16.81,125.63,31.53,190.47,34.01,67.84,2.6,136.14.4,204.03.4,136.9,0,272.59-18.92,409.3-22.82,60.94-1.74,121.91-5.78,182.88-6.27,49.06-.39,98.69,2.28,146.36,14.13v-368.38c-84.48-1.93-168.94-4.44-253.41-6.62Z"/>
  <path class="cls-3" d="M1691.34,358.31c-144.31-3.72-288.56-9.46-432.87-12.97-146.08-3.55-292.11-4.28-438.23-5.07-145.47-.79-290.92-3.59-436.38-5.49-71.82-.94-143.14-4.09-214.75-9.78-56.26-4.47-112.53-9.17-168.93-11.12v311.72c5.19.05,10.38.08,15.57.15,136.34,1.79,272.29,10.81,408.16,21.76,65.66,5.29,131.29,11.68,196.36,22.12,64.99,10.43,127.97,27.12,191.45,44.21,62.41,16.81,125.63,31.53,190.47,34.01,67.84,2.6,136.14.4,204.03.4,136.9,0,272.59-18.92,409.3-22.82,60.94-1.74,121.91-5.78,182.88-6.27,49.06-.39,98.69,2.28,146.36,14.13v-368.38c-84.48-1.93-168.94-4.44-253.41-6.62Z"/>
  <path class="cls-3" d="M1691.34,358.31c-144.31-3.72-288.56-9.46-432.87-12.97-146.08-3.55-292.11-4.28-438.23-5.07-145.47-.79-290.92-3.59-436.38-5.49-71.82-.94-143.14-4.09-214.75-9.78-56.26-4.47-112.53-9.17-168.93-11.12v311.72c5.19.05,10.38.08,15.57.15,136.34,1.79,272.29,10.81,408.16,21.76,65.66,5.29,131.29,11.68,196.36,22.12,64.99,10.43,127.97,27.12,191.45,44.21,62.41,16.81,125.63,31.53,190.47,34.01,67.84,2.6,136.14.4,204.03.4,136.9,0,272.59-18.92,409.3-22.82,60.94-1.74,121.91-5.78,182.88-6.27,49.06-.39,98.69,2.28,146.36,14.13v-368.38c-84.48-1.93-168.94-4.44-253.41-6.62Z"/>
  <path class="cls-3" d="M1691.34,358.31c-144.31-3.72-288.56-9.46-432.87-12.97-146.08-3.55-292.11-4.28-438.23-5.07-145.47-.79-290.92-3.59-436.38-5.49-71.82-.94-143.14-4.09-214.75-9.78-56.26-4.47-112.53-9.17-168.93-11.12v311.72c5.19.05,10.38.08,15.57.15,136.34,1.79,272.29,10.81,408.16,21.76,65.66,5.29,131.29,11.68,196.36,22.12,64.99,10.43,127.97,27.12,191.45,44.21,62.41,16.81,125.63,31.53,190.47,34.01,67.84,2.6,136.14.4,204.03.4,136.9,0,272.59-18.92,409.3-22.82,60.94-1.74,121.91-5.78,182.88-6.27,49.06-.39,98.69,2.28,146.36,14.13v-368.38c-84.48-1.93-168.94-4.44-253.41-6.62Z"/>
  <path class="cls-3" d="M1691.34,358.31c-144.31-3.72-288.56-9.46-432.87-12.97-146.08-3.55-292.11-4.28-438.23-5.07-145.47-.79-290.92-3.59-436.38-5.49-71.82-.94-143.14-4.09-214.75-9.78-56.26-4.47-112.53-9.17-168.93-11.12v311.72c5.19.05,10.38.08,15.57.15,136.34,1.79,272.29,10.81,408.16,21.76,65.66,5.29,131.29,11.68,196.36,22.12,64.99,10.43,127.97,27.12,191.45,44.21,62.41,16.81,125.63,31.53,190.47,34.01,67.84,2.6,136.14.4,204.03.4,136.9,0,272.59-18.92,409.3-22.82,60.94-1.74,123-.73,183.96-1.21,48.54-.39,97.8,2.94,145.01,14.48.51-.2.24-5.03.75-5.24l-.49-368.55c-84.48-1.93-168.94-4.44-253.41-6.62Z"/>
  <path class="cls-3" d="M1691.34,358.31c-144.31-3.72-288.56-9.46-432.87-12.97-146.08-3.55-292.11-4.28-438.23-5.07-145.47-.79-290.92-3.59-436.38-5.49-71.82-.94-143.14-4.09-214.75-9.78-56.26-4.47-112.53-9.17-168.93-11.12v311.72c5.19.05,10.38.08,15.57.15,136.34,1.79,272.29,10.81,408.16,21.76,65.66,5.29,131.29,11.68,196.36,22.12,17.79,2.86,35.42,6.19,52.96,9.86,62.5-15.12,118.16-15.12,181.69-15.12,79.76-11.98,162.53-14.43,242.59-16.8,119.48-3.53,243.03-7.18,356.86-43.12l.7-.08c129.74,9.97,261.76-20.49,389.44-49.95,30.54-.05,50.47-.05,85.36,2.19l14.9-1.81v-189.88c-84.48-1.93-168.94-4.44-253.41-6.62Z"/>
  <path class="cls-3" d="M1691.34,358.31c-144.31-3.72-288.56-9.46-432.87-12.97-146.08-3.55-292.11-4.28-438.23-5.07-145.47-.79-290.92-3.59-436.38-5.49-71.82-.94-143.14-4.09-214.75-9.78-56.26-4.47-112.53-9.17-168.93-11.12v311.72c5.19.05,10.38.08,15.57.15,136.34,1.79,272.29,10.81,408.16,21.76,7.35.59,14.7,1.2,22.06,1.83,47.57-19.56,97.88-24.96,138.95-24.96,65.82-3.29,131.52-5.54,195.07-7.71,134.07-4.57,260.7-8.89,394.75-22.29,40.01,0,80.6-7.62,119.84-14.98,39.41-7.39,80.17-15.03,120.34-15.03,104.11,0,203.94-15.3,300.49-30.1,74.23-11.37,150.84-23.02,229.34-27.82v-141.54c-84.48-1.93-168.94-4.44-253.41-6.62Z"/>
  <path class="cls-3" d="M1691.34,358.31c-144.31-3.72-288.56-9.46-432.87-12.97-146.08-3.55-292.11-4.28-438.23-5.07-145.47-.79-290.92-3.59-436.38-5.49-71.82-.94-143.14-4.09-214.75-9.78-56.26-4.47-112.53-9.17-168.93-11.12v311.72c5.19.05,10.38.08,15.57.15,85.16,1.12,170.15,5.05,255.08,10.52,7.32-4.29,15.11-8.21,23.36-11.75l13-4.35c174.38-58.19,372.02-124.15,558-55.83,74.83-4.99,148.4-12.61,219.54-19.96,71.3-7.38,145.03-15.01,220.07-20.01,59.67-5.68,119.49-9.81,177.34-13.82,145.05-10.02,295.04-20.38,452.37-56.14,3.68,0,7.02.02,10.25.08v-89.58c-84.48-1.93-168.94-4.44-253.41-6.62Z"/>
  <path class="cls-3" d="M1691.34,358.31c-144.31-3.72-288.56-9.46-432.87-12.97-146.08-3.55-292.11-4.28-438.23-5.07-145.47-.79-290.92-3.59-436.38-5.49-71.82-.94-143.14-4.09-214.75-9.78-56.26-4.47-112.53-9.17-168.93-11.12v311.72c5.19.05,10.38.08,15.57.15,61.84.81,123.6,3.12,185.31,6.41,29.04-19.09,59.37-31.69,83.27-39.66,20.32-5.08,40.23-10.13,59.94-15.13,97.94-24.83,190.45-48.29,290.34-64.94,56.67-5.64,107.07,4.64,155.82,14.59,38.73,7.91,75.31,15.39,114.49,15.39,70.38,0,150.58-10.11,219.74-19.98,14.91-.02,26.89-4.81,39.58-9.89,12.46-4.98,25.33-10.13,40.69-10.13,40,0,89.77,0,129.55-9.95,105.53-.03,226.23-1.35,337.47-12.25.01-.01.03-.02.04-.04,40.41-4.26,81.25-9.98,122.6-17.73,30.11-5.02,58.11-7.56,85.18-10.03,20.81-1.89,42.47-3.85,65-6.92v-80.57c-84.48-1.93-168.94-4.44-253.41-6.62Z"/>
  <path class="cls-3" d="M1691.34,358.31c-144.31-3.72-288.56-9.46-432.87-12.97-146.08-3.55-292.11-4.28-438.23-5.07-145.47-.79-290.92-3.59-436.38-5.49-71.82-.94-143.14-4.09-214.75-9.78-56.26-4.47-112.53-9.17-168.93-11.12v311.72c5.19.05,10.38.08,15.57.15,18.69.25,37.37.64,56.05,1.14,166.66-92.07,348.98-143.28,543.03-152.52,65.2,0,131.34,7.63,195.3,15.01,63.77,7.35,129.72,14.97,194.53,14.99,135.16-38.57,272.46-39.97,405.24-41.33,73.71-.75,149.92-1.53,224.84-8.66h.01c10.21,0,19.99,9.1,29.45,18.52l1.05.32.61-.49c19.54-18.8,39.39-28.37,59.04-28.37,72.91,0,147.22-13.5,219.84-29.06v-50.39c-84.48-1.93-168.94-4.44-253.41-6.62Z"/>
  <path class="cls-3" d="M69.9,627.95c-23.23-.64-46.46-1.08-69.71-1.32v113.51c10.4-10.38,18.52-21.34,22.88-34.22-.03-6.82-1.24-13.61-2.4-20.19-2.15-12.18-4.19-23.68,2.94-30.82,15.29-9.35,30.72-18.33,46.29-26.97Z"/>
  <path class="cls-3" d="M1691.34,358.31c-144.31-3.72-288.56-9.46-432.87-12.97-146.08-3.55-292.11-4.28-438.23-5.07-145.47-.79-290.92-3.59-436.38-5.49-71.82-.94-143.14-4.09-214.75-9.78-56.26-4.47-112.53-9.17-168.93-11.12v278.83c250.7-117.13,494.39-163.97,724.94-138.32h.1c34.2,0,69.09,5.61,102.84,11.04,44.82,7.21,91.15,14.63,136.62,8.96,112.58-20.47,211.19-30.01,310.23-30.01,187.69,0,429.15-4.95,669.84-40.58v-38.87c-84.48-1.93-168.94-4.44-253.41-6.62Z"/>
  <path class="cls-3" d="M1691.34,358.31c-144.31-3.72-288.56-9.46-432.87-12.97-146.08-3.55-292.11-4.28-438.23-5.07-145.47-.79-290.92-3.59-436.38-5.49-71.82-.94-143.14-4.09-214.75-9.78-56.26-4.47-112.53-9.17-168.93-11.12v223.06c15.18,2.03,31.72,3.72,43.91-2.36,170.92-68.38,317.31-100.2,460.82-100.2,14.64,0,26.63-4.79,39.31-9.87,12.46-4.98,25.33-10.13,40.69-10.13,61.65-7.73,128.82,2.32,193.77,12.02,19.59,2.93,38.09,5.69,56.46,7.99,129.77,9.98,261.86-.18,389.63-10.01,107.13-11.9,213.94-12.8,317.22-13.66,138.24-1.17,270.4-2.39,402.76-27.5v-18.29c-84.48-1.93-168.94-4.44-253.41-6.62Z"/>
  <path class="cls-3" d="M1691.34,358.31c-144.31-3.72-288.56-9.46-432.87-12.97-146.08-3.55-292.11-4.28-438.23-5.07-145.47-.79-290.92-3.59-436.38-5.49-71.82-.94-143.14-4.09-214.75-9.78-56.26-4.47-112.53-9.17-168.93-11.12v178.67c85.04-17.07,164.39-36.18,244.04-68.04,20.48-6.83,41.02-4.54,60.89-2.34,9.78,1.09,19.9,2.22,29.79,2.22,3.86,0,6.04-4.37,8.34-8.98,2.58-5.17,5.51-11.02,11.66-11.02l13.87-1c134.13-9.6,260.82-18.67,396.26-9,82.51,15,166.3,13.1,247.32,11.25,27.05-.62,55.02-1.25,82.54-1.25,114.2-11.44,230.45-9.77,342.89-8.16,84.25,1.19,171.37,2.43,257.02-1.84,48.4-4.4,95.62-12.82,141.29-20.97,18.7-3.34,37.73-6.66,56.96-9.73-67.25-1.7-134.49-3.64-201.74-5.38Z"/>
  <path class="cls-4" d="M1691.34,358.31c-144.31-3.72-288.56-9.46-432.87-12.97-146.08-3.55-292.11-4.28-438.23-5.07-145.47-.79-290.92-3.59-436.38-5.49-71.82-.94-143.14-4.09-214.75-9.78-56.26-4.47-112.53-9.17-168.93-11.12v137.35c66.54-12.51,133.43-30.77,198.59-48.65,34.64-9.5,70.45-19.34,105.69-28.14,30.45-5.06,61.11.03,90.75,4.97,29.35,4.9,59.69,9.95,89.39,5,90.53-24.69,174.06-15.61,262.49-5.98,18.87,2.05,38.38,4.18,57.98,5.97h.09c34.03,0,67.1,4.36,99.09,8.57,53.82,7.09,104.68,13.81,160.25,1.46,135.06-32.15,268.69-27.02,397.91-22.1,72.43,2.77,147.33,5.62,222.4,2.06,26.12-2.37,52.72-4.22,78.45-6.01,25.57-1.77,51.47-3.62,77.45-6.05-49.8-1.33-99.59-2.73-149.39-4.02Z"/>
  <path class="cls-2" d="M820.25,340.27c-16.74-.09-33.47-.21-50.21-.35,117.71,10.52,211.7,9.23,288.93,2.06-79.56-.86-159.13-1.28-238.72-1.71Z"/>
  <path class="cls-2" d="M.19,313.88v39.34c32.85-7.42,65.79-15.47,98.04-23.55,10.39-2.6,20.82-5.22,31.28-7.81-43.07-3.38-86.15-6.48-129.32-7.97Z"/>
  <path class="cls-2" d="M.19,313.88v16.05c13.67-4.78,27.42-9.52,41.26-14.17-13.75-.76-27.5-1.4-41.26-1.87Z"/>
  <path class="cls-3" d="M1716.53,225.73c-144.31-3.72-311.58,58.22-455.9,54.71-146.08-3.55-294.28,60.62-440.39,59.83-145.47-.79-290.92-3.59-436.38-5.49-71.82-.94-143.14-4.09-214.75-9.78-56.26-4.47-112.53-9.17-168.93-11.12v311.72c5.19.05,10.38.08,15.57.15,8.04.11,16.09.24,24.13.4,2.64.05,5.29.12,7.93.17,5.4.11,10.8.23,16.2.37,3.14.08,6.28.17,9.43.25,4.93.13,9.85.27,14.78.42,3.29.1,6.58.21,9.86.32,4.82.16,9.63.32,14.44.5,3.3.12,6.59.24,9.89.37,4.89.19,9.78.38,14.66.59,3.18.13,6.35.26,9.53.4,5.22.23,10.43.46,15.64.7,2.82.13,5.64.25,8.47.39,6.95.33,13.9.68,20.84,1.04,1.06.05,2.13.1,3.19.16,7.95.42,15.9.85,23.84,1.3,2.84.16,5.69.33,8.53.49,5.17.3,10.35.6,15.52.91,3.33.2,6.66.41,9.98.61,4.71.29,9.42.58,14.12.88,3.48.22,6.95.45,10.42.67,4.58.3,9.16.6,13.73.91,3.52.24,7.04.47,10.56.72,4.57.31,9.13.63,13.7.95,3.48.24,6.96.49,10.44.74,4.74.34,9.49.68,14.23,1.03,3.27.24,6.53.47,9.8.72,5.65.42,11.3.85,16.95,1.27,2.34.18,4.67.35,7.01.53h0c16.77,1.28,33.54,2.6,50.31,3.96,5.79.47,11.58.95,17.37,1.43,1.16.1,2.33.2,3.49.29,5.88.5,11.77,1.01,17.65,1.53.36.03.71.06,1.07.1,5.98.53,11.95,1.08,17.92,1.64.37.04.74.07,1.11.1,6.26.59,12.53,1.2,18.79,1.84.21.02.43.04.64.07,12.77,1.29,25.54,2.67,38.29,4.16.06,0,.12.01.19.02,12.88,1.5,25.74,3.11,38.58,4.86,13.77,1.87,27.53,3.88,41.26,6.09,3.85.62,7.7,1.26,11.54,1.92,1.27.22,2.55.45,3.82.68,2.56.45,5.13.9,7.69,1.37,1.51.28,3.02.56,4.53.85,2.32.43,4.63.87,6.95,1.32,1.6.31,3.19.63,4.79.94,2.23.44,4.46.89,6.68,1.34,1.62.33,3.25.66,4.87,1,2.2.46,4.4.92,6.6,1.39,1.62.35,3.24.69,4.86,1.04,2.23.48,4.45.97,6.67,1.47,1.57.35,3.15.69,4.72,1.05,2.35.53,4.71,1.07,7.06,1.61,1.43.33,2.86.65,4.29.98,3.21.75,6.43,1.51,9.64,2.27,1.74.41,3.47.83,5.2,1.25,2.46.59,4.93,1.19,7.39,1.79,1.79.44,3.58.89,5.38,1.33,1.94.48,3.89.96,5.83,1.45,1.94.49,3.88.98,5.82,1.47,1.78.45,3.57.9,5.35,1.36,2.03.52,4.05,1.04,6.07,1.56,1.67.43,3.34.86,5.01,1.3,2.13.55,4.26,1.11,6.39,1.67,1.5.39,3,.79,4.5,1.18,2.3.6,4.59,1.21,6.89,1.82,1.16.31,2.33.62,3.49.93,2.65.7,5.31,1.41,7.96,2.12,7.15,1.91,14.31,3.83,21.47,5.76,2.31.62,4.61,1.24,6.92,1.85.69.18,1.37.36,2.06.55,1.71.45,3.42.91,5.13,1.36.7.18,1.4.37,2.1.55.05.01.1.03.15.04,0,0,.02,0,.02,0,2.09.55,4.19,1.09,6.28,1.63.19.05.37.1.56.15,2.35.61,4.7,1.21,7.06,1.8.59.15,1.17.29,1.76.44,1.82.46,3.64.91,5.46,1.37.65.16,1.29.32,1.94.48,2.1.52,4.2,1.03,6.31,1.54.26.06.52.13.77.19,2.41.58,4.81,1.15,7.22,1.72.45.11.9.21,1.34.31,1.95.46,3.91.91,5.87,1.36.59.14,1.19.27,1.78.41,2.09.47,4.18.94,6.28,1.4.29.06.59.13.88.2,2.45.54,4.9,1.07,7.36,1.59.31.07.63.13.94.2,2.09.44,4.19.87,6.28,1.3.55.11,1.11.23,1.66.34,2.06.42,4.13.83,6.19,1.23.36.07.72.14,1.07.21,2.48.48,4.96.95,7.44,1.4.16.03.32.06.49.09,2.24.41,4.48.81,6.72,1.2.54.09,1.08.19,1.62.28,2.02.35,4.05.69,6.07,1.02.43.07.87.14,1.3.21,24.27,3.93,48.72,6.66,73.41,7.6,67.84,2.6,136.14.4,204.03.4,136.9,0,272.59-18.92,409.3-22.82,54.31-1.55,108.65-4.92,162.99-5.98,11.93-4.45,23.81-9.39,35.63-14.91l.78-.17c1.7,0,3.09.31,4.35.72l.04-.06,1.54.68c.24.12.52.21.75.33l17.42,7.71c41.05,13.71,72.62-2.39,105.74-20v-328.84c-84.48-1.93-143.75-137.02-228.22-139.19Z"/>
  <path class="cls-3" d="M.37,0v.14h-.18v312.74c.1,0,.2,0,.29.01l-.29,69.13v36.96c61.52-9.33,120.63-25.2,178.19-40.79,59.06-16.01,135.08-34.85,200.48-44.6,2.08.04,4.16.09,6.24.12,0,0,.02,0,.02,0h0c17.38.3,34.78.55,52.19.8,40.5.58,80.99,1.2,121.49,1.8,0,0,0,0,0,0,.24,0,.49,0,.73.01,1.68.02,3.36.05,5.04.07,62.28,6.1,142.17,16.77,202.36,25.39l18.26,2.62c129.74,9.95,264.38-.19,394.6-10.02,31.15-2.35,105.53-5.68,152-8.12,13.44.37,26.88.74,40.32,1.13,3.54.1,7.07.2,10.61.31,19.08.56,38.17,1.14,57.26,1.74.86.03,1.71.05,2.57.08,3.26.1,6.52.2,9.78.31,18.5.58,37,1.17,55.5,1.77,3.5.11,7,.23,10.51.34,19.88.64,39.76,1.29,59.64,1.94.61.02,1.23.04,1.84.06,3.72.12,7.45.24,11.17.36.95.03,1.9.06,2.85.09,6.34.21,12.68.41,19.03.62,6.81.22,13.61.44,20.42.66,2.77.09,5.54.18,8.3.27,2.26.07,4.51.14,6.77.22,1.73.06,3.46.11,5.19.17,3.29.11,6.59.21,9.88.32,1.42.05,2.84.09,4.26.14,1.34.04,2.68.08,4.02.13,7.18.23,14.36.45,21.54.68,5.26.17,10.53.33,15.79.5,1.01.03,2.02.06,3.03.09,7.47.23,14.94.46,22.4.68,4.15.13,8.3.26,12.45.38.42.01.84.02,1.25.04,7.56.23,15.12.45,22.68.67,3.24.09,6.48.19,9.71.29,1.88.05,3.77.11,5.65.17.09,0,.17,0,.26,0,1.43.04,2.86.08,4.29.12,11.18.32,22.36.63,33.54.94.59.02,1.18.03,1.77.05,3.62.1,7.23.19,10.85.28.21,0,.41.01.62.02,2.21.06,4.41.13,6.62.18.02,0,.05,0,.07,0,6.07.16,12.15.32,18.22.48,1.06.03,2.12.06,3.18.08,3.82.1,7.64.18,11.46.28,6.18.15,12.35.31,18.53.46.02,0,.03,0,.05,0,3.19.08,6.39.16,9.58.23,5.88.14,11.76.26,17.64.39,7.29.16,14.58.33,21.86.48h0c.06,0,.12,0,.18,0V0H.37ZM474.46,211.28c-.64,0-.64-1,0-1s.64,1,0,1Z"/>
  <path class="cls-1" d="M151.14,1391.03c193.46-27.04,388.49-41.66,583.68-48.12,195.73-6.48,391.66-4.79,587.37,1.33,96.62,3.02,193.21,7.12,289.76,11.89,23.91,1.18,47.81,2.66,71.73,3.63,16.39.67,33.55.51,49.22-4.95,13.79-4.8,25.74-14.45,30.59-28.57s1.75-31.02-5.58-44.28c-18.91-34.2-61.5-41.74-96.85-46.19-48.91-6.17-98.31-7.32-147.55-5.91-99.33,2.85-198.31,14.46-297.46,20.76-100.64,6.39-201.43,10.34-302.26,12.07-22.9.39-45.95,1.39-68.85.59-18.06-.64-37.34-2.87-53.39-11.81-18.63-10.38-27.77-30.07-24.14-51.09,3.92-22.67,18.53-40.82,32.61-58.14,11.7-14.39,23.15-29.06,29.02-46.91.25-.77-.96-1.09-1.21-.33-12.93,39.38-54.31,63.06-61.62,105.05-2.71,15.54.98,31.45,12.1,42.95,10.07,10.42,24.31,15.67,38.23,18.47,16.75,3.37,33.84,3.3,50.85,3.12,25.61-.27,51.22-.68,76.82-1.23,50.14-1.08,100.27-2.72,150.38-4.94,98.86-4.38,197.43-11.86,296.05-19.86,49.27-3.99,98.62-7.46,148.07-7.93,48.7-.46,98.62,1,146.6,10.07,20.8,3.93,42.37,10.56,58.33,25.11,14.45,13.17,23.88,34.16,20.29,53.85-8.21,44.95-66.29,39.61-99.95,37.87-96.35-4.98-192.73-9.38-289.15-12.77-193.57-6.81-387.34-9.6-580.99-4.78-192.51,4.79-384.97,17.06-576.09,41-22.33,2.8-44.64,5.76-66.92,8.88-.79.11-.46,1.32.33,1.21h0Z"/>
</svg>